<svg xmlns="http://www.w3.org/2000/svg" viewBox="0 0 1135.8091 174.8699"><defs><style>.cls-1{fill:#fff;}.cls-2{fill:#43a012;}</style></defs><title>Datový zdroj 8průhledné pozadí</title><g id="Vrstva_2" data-name="Vrstva 2"><g id="Vrstva_5" data-name="Vrstva 5"><path class="cls-1" d="M675.6417,62.6756a16.6282,16.6282,0,0,1,2.3359-8.6977,17.6061,17.6061,0,0,1,6.3048-6.2478,16.7333,16.7333,0,0,1,8.6408-2.336h49.3913a16.6467,16.6467,0,0,1,8.6978,2.336,18.2741,18.2741,0,0,1,6.3063,6.2478,16.34,16.34,0,0,1,2.393,8.6977v66.7885H741.38V102.3762H693.74v27.0879H675.6417ZM741.38,84.16V63.61H693.74V84.16Z"/><path class="cls-1" d="M778.873,127.13a17.4414,17.4414,0,0,1-6.3048-6.3064,16.7173,16.7173,0,0,1-2.336-8.6391v-66.79h18.0987V111.25h47.64V45.3941h18.3315v66.79a16.4284,16.4284,0,0,1-2.393,8.6391,18.0938,18.0938,0,0,1-6.3063,6.3064,16.42,16.42,0,0,1-8.5822,2.3344H787.5138A16.7165,16.7165,0,0,1,778.873,127.13Z"/><path class="cls-1" d="M864.8561,129.4641v-84.07h66.6728a16.6523,16.6523,0,0,1,8.6994,2.336,18.2823,18.2823,0,0,1,6.3047,6.2478,16.3417,16.3417,0,0,1,2.3946,8.6977v49.5086a16.43,16.43,0,0,1-2.3946,8.6391,18.101,18.101,0,0,1-6.3047,6.3064,16.6362,16.6362,0,0,1-8.6994,2.3344ZM930.5945,111.25V63.61H882.8392v47.64Z"/><path class="cls-1" d="M955.8627,129.4641v-84.07H973.727v84.07Z"/><path class="cls-2" d="M1135.8091,62.68V112.19a88.0118,88.0118,0,0,1-12.6657,45.5223,88.969,88.969,0,0,1-13.3955,17.1572l-12.6171-12.6167a71.6206,71.6206,0,0,0,10.7361-13.7688A70.0668,70.0668,0,0,0,1117.97,112.19V62.68a70.2528,70.2528,0,0,0-10.2657-36.6353A72.0185,72.0185,0,0,0,1097.1308,12.6L1109.7317,0a89.167,89.167,0,0,1,13.1848,16.7193A88.1009,88.1009,0,0,1,1135.8091,62.68Z"/><path class="cls-2" d="M1100.1312,62.68V112.19a52.3087,52.3087,0,0,1-7.5246,27.0665,53.3852,53.3852,0,0,1-8.1087,10.363l-12.617-12.6174a35.2223,35.2223,0,0,0,5.4487-6.9565,34.1214,34.1214,0,0,0,4.9626-17.8556V62.68a34.005,34.005,0,0,0-5.0109-18.0013,35.7864,35.7864,0,0,0-5.4-6.8274l12.6333-12.6333a53.6587,53.6587,0,0,1,7.9787,10.1358A52.3769,52.3769,0,0,1,1100.1312,62.68Z"/><path class="cls-1" d="M997.6633,129.4641a16.7162,16.7162,0,0,1-8.6407-2.3344,17.4414,17.4414,0,0,1-6.3048-6.3064,16.7164,16.7164,0,0,1-2.336-8.6391V62.6756a16.6273,16.6273,0,0,1,2.336-8.6977,17.6053,17.6053,0,0,1,6.3048-6.2478,16.7329,16.7329,0,0,1,8.6407-2.336h49.507a16.4361,16.4361,0,0,1,8.5821,2.336,18.2744,18.2744,0,0,1,6.3064,6.2478,16.34,16.34,0,0,1,2.393,8.6977v49.5086a16.4284,16.4284,0,0,1-2.393,8.6391,18.0933,18.0933,0,0,1-6.3064,6.3064,16.42,16.42,0,0,1-8.5821,2.3344ZM1046.12,111.25V63.61h-47.64v47.64Z"/><path class="cls-1" d="M91.5463,45.3832,63.7013,93.5971l-7.4275,12.8606L21.0175,45.3832H0l48.6841,84.07H63.75L82.0268,97.8949l.7946-1.3624L93.3788,78.3043l8.5141-14.7091L112.45,45.3832Z"/><polygon class="cls-1" points="151.907 45.383 151.907 63.595 112.45 63.595 123.008 45.383 151.907 45.383"/><polygon class="cls-1" points="140.344 78.304 140.344 96.533 93.379 96.533 103.936 78.304 140.344 78.304"/><polygon class="cls-1" points="151.907 111.242 151.907 129.454 74.307 129.454 92.584 97.895 92.584 111.242 151.907 111.242"/><path class="cls-1" d="M161.1116,129.4549V45.385h18.6815l47.0561,56.0477V45.385h18.3323v84.07H226.4992l-47.29-56.28v56.2805Z"/><path class="cls-1" d="M255.7473,129.4549V45.385H273.846V78.312H323.47V45.385h18.0987v84.07H323.47V96.5279H273.846v32.927Z"/><path class="cls-1" d="M369.5452,129.4549a16.736,16.736,0,0,1-8.6408-2.3344,17.4664,17.4664,0,0,1-6.3047-6.3063,16.7157,16.7157,0,0,1-2.3352-8.6392V62.6665A16.6368,16.6368,0,0,1,354.6,53.9671a17.625,17.625,0,0,1,6.3047-6.2461,16.7375,16.7375,0,0,1,8.6408-2.336h49.5077a16.4382,16.4382,0,0,1,8.5822,2.336,18.2867,18.2867,0,0,1,6.3055,6.2461,16.3509,16.3509,0,0,1,2.3938,8.6994V112.175a16.4292,16.4292,0,0,1-2.3938,8.6392,18.1113,18.1113,0,0,1-6.3055,6.3063,16.4368,16.4368,0,0,1-8.5822,2.3344Zm48.4569-18.2143v-47.64h-47.64v47.64Z"/><path class="cls-1" d="M463.82,129.4549a16.7354,16.7354,0,0,1-8.6407-2.3344,17.4666,17.4666,0,0,1-6.3048-6.3063,16.7157,16.7157,0,0,1-2.3352-8.6392V62.6665a16.6368,16.6368,0,0,1,2.3352-8.6994,17.6253,17.6253,0,0,1,6.3048-6.2461,16.7368,16.7368,0,0,1,8.6407-2.336h49.5077a16.4382,16.4382,0,0,1,8.5822,2.336,18.287,18.287,0,0,1,6.3056,6.2461,16.3508,16.3508,0,0,1,2.3937,8.6994V112.175a16.4291,16.4291,0,0,1-2.3937,8.6392,18.1116,18.1116,0,0,1-6.3056,6.3063,16.4368,16.4368,0,0,1-8.5822,2.3344Zm48.4569-18.2143v-47.64h-47.64v47.64Z"/><path class="cls-1" d="M541.1273,129.4549V45.385H607.8a16.65,16.65,0,0,1,8.6986,2.336,18.287,18.287,0,0,1,6.3056,6.2461,16.3508,16.3508,0,0,1,2.3937,8.6994V112.175a16.4291,16.4291,0,0,1-2.3937,8.6392,18.1116,18.1116,0,0,1-6.3056,6.3063,16.6483,16.6483,0,0,1-8.6986,2.3344Zm65.7384-18.2143v-47.64H559.11v47.64Z"/></g></g></svg>