<svg xmlns="http://www.w3.org/2000/svg" viewBox="0 0 738.5433 142.2707"><defs><style>.cls-1{fill:#fff;}</style></defs><title>Datový zdroj 6průhledné pozadí</title><g id="Vrstva_2" data-name="Vrstva 2"><g id="Vrstva_5" data-name="Vrstva 5"><path class="cls-1" d="M91.563,0l-27.85,48.2227L56.284,61.0856,21.0213,0H0L48.693,84.0857H63.7616l18.28-31.5645.7947-1.3626L93.3959,32.9271l8.5156-14.7118L112.4709,0Z"/><polygon class="cls-1" points="151.935 0 151.935 18.215 112.471 18.215 123.03 0 151.935 0"/><polygon class="cls-1" points="140.37 32.927 140.37 51.159 93.396 51.159 103.955 32.927 140.37 32.927"/><polygon class="cls-1" points="151.935 65.87 151.935 84.086 74.321 84.086 92.601 52.521 92.601 65.87 151.935 65.87"/><path class="cls-1" d="M161.141,84.087V.0017h18.6849L226.8907,56.06V.0017h18.3356V84.087H226.5406L179.2422,27.7963V84.087Z"/><path class="cls-1" d="M255.794,84.087V.0017h18.102V32.9348h49.6332V.0017h18.102V84.087h-18.102V51.154H273.896V84.087Z"/><path class="cls-1" d="M369.6127,84.087a16.7383,16.7383,0,0,1-8.6423-2.3348,17.4693,17.4693,0,0,1-6.306-6.3075,16.72,16.72,0,0,1-2.3356-8.6407V17.2864a16.6406,16.6406,0,0,1,2.3356-8.701,17.63,17.63,0,0,1,6.306-6.2473A16.7407,16.7407,0,0,1,369.6127.0017H419.13a16.442,16.442,0,0,1,8.5837,2.3364A18.2919,18.2919,0,0,1,434.02,8.5854a16.3538,16.3538,0,0,1,2.3942,8.701V66.804a16.432,16.432,0,0,1-2.3942,8.6407,18.1139,18.1139,0,0,1-6.3067,6.3075A16.44,16.44,0,0,1,419.13,84.087Zm48.4658-18.2176V18.2209H370.43V65.8694Z"/><path class="cls-1" d="M463.9045,84.087a16.7388,16.7388,0,0,1-8.6423-2.3348,17.469,17.469,0,0,1-6.3059-6.3075,16.7186,16.7186,0,0,1-2.3356-8.6407V17.2864a16.64,16.64,0,0,1,2.3356-8.701,17.63,17.63,0,0,1,6.3059-6.2473A16.7412,16.7412,0,0,1,463.9045.0017h49.5168a16.4421,16.4421,0,0,1,8.5838,2.3364,18.2927,18.2927,0,0,1,6.3067,6.2473,16.3538,16.3538,0,0,1,2.3942,8.701V66.804a16.432,16.432,0,0,1-2.3942,8.6407,18.1148,18.1148,0,0,1-6.3067,6.3075,16.44,16.44,0,0,1-8.5838,2.3348ZM512.37,65.8694V18.2209H464.7219V65.8694Z"/><path class="cls-1" d="M541.2262,84.087V.0017h66.685a16.6528,16.6528,0,0,1,8.7,2.3364,18.291,18.291,0,0,1,6.3067,6.2473,16.3539,16.3539,0,0,1,2.3943,8.701V66.804a16.4321,16.4321,0,0,1-2.3943,8.6407,18.1131,18.1131,0,0,1-6.3067,6.3075,16.6506,16.6506,0,0,1-8.7,2.3348Zm65.75-18.2176V18.2209H559.2117V65.8694Z"/><rect class="cls-1" x="635.5188" y="47.5494" width="18.1012" height="36.5377"/><rect class="cls-1" x="663.8266" y="21.0245" width="18.1012" height="63.0625"/><rect class="cls-1" x="692.1343" y="33.2374" width="18.1012" height="50.8496"/><rect class="cls-1" x="720.4421" y="5.4722" width="18.1012" height="78.6148"/><path class="cls-1" d="M453.1072,142.2707v-23.825a5.984,5.984,0,0,1,.857-3.1395,6.5561,6.5561,0,0,1,2.2841-2.2841,5.9883,5.9883,0,0,1,3.14-.8554h16.92v4.2562h-16.92a2.0362,2.0362,0,0,0-2.0243,2.0228v23.825Z"/><path class="cls-1" d="M493.0273,141.4138a6.5527,6.5527,0,0,1-2.2841-2.2826,5.9994,5.9994,0,0,1-.857-3.1411V118.4457a5.9979,5.9979,0,0,1,.857-3.1395,6.5694,6.5694,0,0,1,2.2841-2.2841,5.9886,5.9886,0,0,1,3.1395-.8554h18.064a6.0927,6.0927,0,0,1,3.1918.8554,6.5829,6.5829,0,0,1,2.2841,2.2841,5.9965,5.9965,0,0,1,.8554,3.1395v10.9011h-26.42V135.99a2.039,2.039,0,0,0,2.0243,2.0244h24.3953v4.2562H496.1668A5.976,5.976,0,0,1,493.0273,141.4138Zm1.1152-16.3232h22.1127v-6.6449a2.0364,2.0364,0,0,0-2.0244-2.0228h-18.064a2.0362,2.0362,0,0,0-2.0243,2.0228Z"/><path class="cls-1" d="M538.2348,141.4138a6.5348,6.5348,0,0,1-2.2825-2.2826,5.9846,5.9846,0,0,1-.857-3.1411V118.4457a5.9831,5.9831,0,0,1,.857-3.1395,6.5515,6.5515,0,0,1,2.2825-2.2841,5.998,5.998,0,0,1,3.1411-.8554h24.2907v4.2562H541.3759a2.0364,2.0364,0,0,0-2.0244,2.0228V135.99a2.0391,2.0391,0,0,0,2.0244,2.0244h24.3953v4.2562H541.3759A5.9854,5.9854,0,0,1,538.2348,141.4138Z"/><path class="cls-1" d="M583.49,141.4138a6.5357,6.5357,0,0,1-2.2825-2.2826,5.9855,5.9855,0,0,1-.857-3.1411V118.4457a5.984,5.984,0,0,1,.857-3.1395,6.5524,6.5524,0,0,1,2.2825-2.2841,5.9983,5.9983,0,0,1,3.1411-.8554h18.0624a6.0884,6.0884,0,0,1,3.1918.8554,6.5561,6.5561,0,0,1,2.2841,2.2841,5.9831,5.9831,0,0,1,.857,3.1395V135.99a5.9846,5.9846,0,0,1-.857,3.1411,6.5394,6.5394,0,0,1-2.2841,2.2826,6.0756,6.0756,0,0,1-3.1918.8569H586.6309A5.9857,5.9857,0,0,1,583.49,141.4138Zm3.1411-3.3993h18.0624a2.0391,2.0391,0,0,0,2.0244-2.0244V118.4457a2.0364,2.0364,0,0,0-2.0244-2.0228H586.6309a2.0362,2.0362,0,0,0-2.0243,2.0228V135.99a2.039,2.039,0,0,0,2.0243,2.0244Z"/><path class="cls-1" d="M625.6212,142.2707v-23.825a5.9965,5.9965,0,0,1,.8554-3.1395,6.5694,6.5694,0,0,1,2.2841-2.2841,5.998,5.998,0,0,1,3.1411-.8554h16.92v4.2562h-16.92a2.0336,2.0336,0,0,0-2.0244,2.0228v23.825Z"/><path class="cls-1" d="M664.84,141.4138a6.5538,6.5538,0,0,1-2.2842-2.2826,6,6,0,0,1-.8569-3.1411V118.4457a5.9987,5.9987,0,0,1,.8569-3.1395,6.5706,6.5706,0,0,1,2.2842-2.2841,6.0843,6.0843,0,0,1,3.1918-.8554h20.0867v-9.862h4.2562v39.966H668.0314A6.0716,6.0716,0,0,1,664.84,141.4138Zm3.1918-3.3993h18.0624a2.039,2.039,0,0,0,2.0243-2.0244V118.4457a2.0362,2.0362,0,0,0-2.0243-2.0228H668.0314a2.0364,2.0364,0,0,0-2.0244,2.0228V135.99a2.0391,2.0391,0,0,0,2.0244,2.0244Z"/><path class="cls-1" d="M710.0487,141.4138a6.5272,6.5272,0,0,1-2.2842-2.2826,5.9854,5.9854,0,0,1-.8569-3.1411v-.415h4.2562v.415a2.0391,2.0391,0,0,0,2.0244,2.0244h18.0624a2.039,2.039,0,0,0,2.0243-2.0244v-4.6189a2.039,2.039,0,0,0-2.0243-2.0244H713.1882a5.9758,5.9758,0,0,1-3.1395-.8569,6.5317,6.5317,0,0,1-2.2842-2.2842,5.9758,5.9758,0,0,1-.8569-3.1395v-4.62a5.9839,5.9839,0,0,1,.8569-3.1395,6.5439,6.5439,0,0,1,2.2842-2.2841,5.9883,5.9883,0,0,1,3.1395-.8554h18.0624a6.0977,6.0977,0,0,1,3.1933.8554,6.566,6.566,0,0,1,2.2826,2.2841,5.9839,5.9839,0,0,1,.8569,3.1395v.4166h-4.3085v-.4166a2.0362,2.0362,0,0,0-2.0243-2.0228H713.1882a2.0364,2.0364,0,0,0-2.0244,2.0228v4.62a2.0391,2.0391,0,0,0,2.0244,2.0244h18.0624a6.0977,6.0977,0,0,1,3.1933.8554,6.5794,6.5794,0,0,1,2.2826,2.2841,5.9854,5.9854,0,0,1,.8569,3.1411V135.99a5.9854,5.9854,0,0,1-.8569,3.1411,6.5493,6.5493,0,0,1-2.2826,2.2826,6.0849,6.0849,0,0,1-3.1933.8569H713.1882A5.9758,5.9758,0,0,1,710.0487,141.4138Z"/><rect class="cls-1" x="457.3635" y="116.0401" width="4.2562" height="26.2306"/><rect class="cls-1" x="629.8673" y="116.0401" width="4.2562" height="26.2306"/><rect class="cls-1" x="539.098" y="114.1034" width="4.2562" height="26.2306"/><rect class="cls-1" x="584.6066" y="114.1034" width="4.2562" height="26.2306"/><rect class="cls-1" x="666.007" y="114.1034" width="4.2562" height="26.2306"/><rect class="cls-1" x="711.0826" y="114.1034" width="4.2562" height="13.1153"/><rect class="cls-1" x="711.1499" y="135.5751" width="4.2562" height="4.7026"/><rect class="cls-1" x="494.1425" y="114.1034" width="4.2562" height="26.2306"/></g></g></svg>