<svg xmlns="http://www.w3.org/2000/svg" viewBox="0 0 1038.9404 83.973"><defs><style>.cls-1{fill:#fff;}</style></defs><title>Datový zdroj 7průhledné pozadí</title><g id="Vrstva_2" data-name="Vrstva 2"><g id="Vrstva_5" data-name="Vrstva 5"><path class="cls-1" d="M91.4389,0,63.6266,48.1573,56.2077,61.0028,20.9928,0H0L48.627,83.9717H63.6752L81.9305,52.45l.7937-1.3607L93.2693,32.8825l8.504-14.6919L112.3184,0Z"/><polygon class="cls-1" points="151.729 0 151.729 18.191 112.318 18.191 122.863 0 151.729 0"/><polygon class="cls-1" points="140.179 32.882 140.179 51.089 93.269 51.089 103.814 32.882 140.179 32.882"/><polygon class="cls-1" points="151.729 65.781 151.729 83.972 74.22 83.972 92.476 52.45 92.476 65.781 151.729 65.781"/><path class="cls-1" d="M160.9226,83.973V.0017h18.66l47.0009,55.982V.0017h18.3108V83.973h-18.66L178.9992,27.7586V83.973Z"/><path class="cls-1" d="M255.4472,83.973V.0017h18.0775V32.89h49.5659V.0017h18.0775V83.973H323.0906V51.0846H273.5247V83.973Z"/><path class="cls-1" d="M369.1116,83.973a16.716,16.716,0,0,1-8.6306-2.3316,17.4459,17.4459,0,0,1-6.2974-6.299,16.6966,16.6966,0,0,1-2.3324-8.629V17.263a16.6177,16.6177,0,0,1,2.3324-8.6892A17.6054,17.6054,0,0,1,360.481,2.335,16.7175,16.7175,0,0,1,369.1116.0017h49.45a16.4189,16.4189,0,0,1,8.5721,2.3333,18.266,18.266,0,0,1,6.2981,6.2388,16.3309,16.3309,0,0,1,2.391,8.6892v49.45a16.4092,16.4092,0,0,1-2.391,8.629,18.09,18.09,0,0,1-6.2981,6.299,16.4174,16.4174,0,0,1-8.5721,2.3316Zm48.4-18.1929V18.1962H369.9279V65.78Z"/><path class="cls-1" d="M463.2756,83.973a16.716,16.716,0,0,1-8.6306-2.3316,17.4457,17.4457,0,0,1-6.2973-6.299,16.6958,16.6958,0,0,1-2.3325-8.629V17.263a16.6168,16.6168,0,0,1,2.3325-8.6892A17.6051,17.6051,0,0,1,454.645,2.335,16.7175,16.7175,0,0,1,463.2756.0017h49.45a16.4186,16.4186,0,0,1,8.5721,2.3333,18.266,18.266,0,0,1,6.2981,6.2388,16.3309,16.3309,0,0,1,2.391,8.6892v49.45a16.4092,16.4092,0,0,1-2.391,8.629,18.09,18.09,0,0,1-6.2981,6.299,16.4171,16.4171,0,0,1-8.5721,2.3316Zm48.4-18.1929V18.1962H464.0919V65.78Z"/><path class="cls-1" d="M540.4924,83.973V.0017h66.5947a16.63,16.63,0,0,1,8.6883,2.3333,18.2663,18.2663,0,0,1,6.2982,6.2388,16.3317,16.3317,0,0,1,2.3909,8.6892v49.45a16.41,16.41,0,0,1-2.3909,8.629,18.09,18.09,0,0,1-6.2982,6.299,16.6281,16.6281,0,0,1-8.6883,2.3316ZM606.1538,65.78V18.1962h-47.7V65.78Z"/><path class="cls-1" d="M682.4957,83.9717a16.6148,16.6148,0,0,1-8.6884-2.3322,17.7343,17.7343,0,0,1-6.24-6.24,16.6112,16.6112,0,0,1-2.3323-8.6885V17.2624a16.6205,16.6205,0,0,1,2.3323-8.6884,17.7638,17.7638,0,0,1,6.24-6.24A16.6272,16.6272,0,0,1,682.4957.0017h66.4762V18.1953h-61.811a4.0166,4.0166,0,0,0-2.8576.9328,3.835,3.835,0,0,0-.9913,2.9158V61.93a3.4662,3.4662,0,0,0,3.8489,3.8486h61.811V83.9717Z"/><path class="cls-1" d="M758.9539,83.9717V.1186h66.5927a16.6375,16.6375,0,0,1,8.6885,2.3326,18.12,18.12,0,0,1,6.2978,6.2978,16.4263,16.4263,0,0,1,2.3907,8.63V39.0711a16.419,16.419,0,0,1-2.3907,8.63,18.0877,18.0877,0,0,1-6.2978,6.2974,16.6188,16.6188,0,0,1-8.6885,2.3326l-48.5157.1169V83.9717Zm65.6595-45.8334V18.1953H777.0309v19.943Zm-.4662,45.8334-24.3748-29.04h23.6747l19.36,22.8584v6.1812Z"/><path class="cls-1" d="M941.0927,83.9717,910.5367.0017H929.78l18.31,50.0321L966.4.0017h16.6776l18.4263,50.0321L1019.814.0017H1038.94l-30.5556,83.97H994.5067L974.68,29.9745l-19.71,53.9972Z"/><polygon class="cls-1" points="871.31 65.778 871.31 51.084 918.587 51.084 911.967 32.89 871.31 32.89 871.31 18.195 906.62 18.195 899.999 0.002 853 0.002 853 83.972 930.555 83.972 923.935 65.778 871.31 65.778"/></g></g></svg>