<svg xmlns="http://www.w3.org/2000/svg" viewBox="0 0 696.0277 174.8699"><defs><style>.cls-1{fill:#fff;}.cls-2{fill:#43a012;}</style></defs><title>Datový zdroj 1průhledné pozadí</title><g id="Vrstva_2" data-name="Vrstva 2"><g id="Vrstva_3" data-name="Vrstva 3"><path class="cls-1" d="M91.4682,45.4333,63.647,93.606l-7.4212,12.85L21,45.4333H0L48.6426,129.432h15.053L81.9568,97.9l.794-1.3612L93.2992,78.3263,101.806,63.63l10.5485-18.1964Z"/><polygon class="cls-1" points="151.777 45.433 151.777 63.63 112.354 63.63 122.903 45.433 151.777 45.433"/><polygon class="cls-1" points="140.224 78.326 140.224 96.539 93.299 96.539 103.848 78.326 140.224 78.326"/><polygon class="cls-1" points="151.777 111.236 151.777 129.432 74.244 129.432 92.505 97.9 92.505 111.236 151.777 111.236"/><path class="cls-1" d="M160.9742,129.4333V45.435H179.64l47.016,56v-56h18.3167v83.9983H226.3061L179.0567,73.2008v56.2325Z"/><path class="cls-1" d="M255.5292,129.4333V45.435h18.0833V78.334h49.5818V45.435h18.0833v83.9983H323.1943V96.5343H273.6125v32.899Z"/><path class="cls-1" d="M369.23,129.4333a16.7216,16.7216,0,0,1-8.6334-2.3324,17.4522,17.4522,0,0,1-6.2994-6.301,16.702,16.702,0,0,1-2.3332-8.6318V62.7018a16.6227,16.6227,0,0,1,2.3332-8.6919,17.612,17.612,0,0,1,6.2994-6.2409,16.7231,16.7231,0,0,1,8.6334-2.334h49.4655a16.4239,16.4239,0,0,1,8.5749,2.334,18.2738,18.2738,0,0,1,6.3,6.2409,16.3367,16.3367,0,0,1,2.3917,8.6919v49.4663a16.4154,16.4154,0,0,1-2.3917,8.6318,18.0972,18.0972,0,0,1-6.3,6.301,16.4225,16.4225,0,0,1-8.5749,2.3324Zm48.4156-18.1988V63.6354H370.0466v47.5991Z"/><path class="cls-1" d="M463.4243,129.4333a16.721,16.721,0,0,1-8.6333-2.3324,17.4507,17.4507,0,0,1-6.2994-6.301,16.7011,16.7011,0,0,1-2.3332-8.6318V62.7018a16.6218,16.6218,0,0,1,2.3332-8.6919,17.61,17.61,0,0,1,6.2994-6.2409,16.7224,16.7224,0,0,1,8.6333-2.334H512.89a16.4236,16.4236,0,0,1,8.5748,2.334,18.2721,18.2721,0,0,1,6.3,6.2409,16.3367,16.3367,0,0,1,2.3917,8.6919v49.4663a16.4154,16.4154,0,0,1-2.3917,8.6318,18.0955,18.0955,0,0,1-6.3,6.301,16.4222,16.4222,0,0,1-8.5748,2.3324ZM511.84,111.2345V63.6354H464.2409v47.5991Z"/><path class="cls-1" d="M540.6659,129.4333V45.435h66.616a16.6351,16.6351,0,0,1,8.6912,2.334,18.2738,18.2738,0,0,1,6.3,6.2409,16.3367,16.3367,0,0,1,2.3917,8.6919v49.4663a16.4154,16.4154,0,0,1-2.3917,8.6318,18.0972,18.0972,0,0,1-6.3,6.301,16.6339,16.6339,0,0,1-8.6912,2.3324Zm65.6824-18.1988V63.6354H558.6329v47.5991Z"/></g><g id="Vrstva_5" data-name="Vrstva 5"><path class="cls-2" d="M696.0277,62.68V112.19a88.0127,88.0127,0,0,1-12.6657,45.5223A88.9729,88.9729,0,0,1,669.9665,174.87l-12.6171-12.6167a71.6162,71.6162,0,0,0,10.736-13.7688,70.0658,70.0658,0,0,0,10.1033-36.294V62.68a70.2527,70.2527,0,0,0-10.2656-36.6353A72.0185,72.0185,0,0,0,657.3494,12.6L669.95,0a89.1711,89.1711,0,0,1,13.1848,16.7193A88.1009,88.1009,0,0,1,696.0277,62.68Z"/><path class="cls-2" d="M660.35,62.68V112.19a52.3078,52.3078,0,0,1-7.5247,27.0665,53.3809,53.3809,0,0,1-8.1086,10.363L632.1,137.0025a35.23,35.23,0,0,0,5.4487-6.9565,34.1214,34.1214,0,0,0,4.9626-17.8556V62.68A34.0059,34.0059,0,0,0,637.5,44.6782a35.7864,35.7864,0,0,0-5.4-6.8274l12.6333-12.6333a53.6587,53.6587,0,0,1,7.9787,10.1358A52.3769,52.3769,0,0,1,660.35,62.68Z"/></g></g></svg>