<svg xmlns="http://www.w3.org/2000/svg" viewBox="0 0 738.5433 84.087"><defs><style>.cls-1{fill:#fff;}</style></defs><title>Datový zdroj 2průhledné pozadí</title><g id="Vrstva_2" data-name="Vrstva 2"><g id="Vrstva_3" data-name="Vrstva 3"><path class="cls-1" d="M91.4682,0,63.647,48.1727l-7.4212,12.85L21,0H0L48.6426,83.9987h15.053L81.9568,52.4669l.794-1.3612L93.2992,32.893l8.5068-14.6966L112.3545,0Z"/><polygon class="cls-1" points="151.777 0 151.777 18.196 112.354 18.196 122.903 0 151.777 0"/><polygon class="cls-1" points="140.224 32.893 140.224 51.106 93.299 51.106 103.848 32.893 140.224 32.893"/><polygon class="cls-1" points="151.777 65.802 151.777 83.999 74.244 83.999 92.505 52.467 92.505 65.802 151.777 65.802"/><path class="cls-1" d="M160.9742,84V.0017H179.64l47.016,56v-56h18.3167V84H226.3061L179.0567,27.7675V84Z"/><path class="cls-1" d="M255.5292,84V.0017h18.0833v32.899h49.5818V.0017h18.0833V84H323.1943V51.101H273.6125V84Z"/><path class="cls-1" d="M369.23,84a16.7216,16.7216,0,0,1-8.6334-2.3324,17.4522,17.4522,0,0,1-6.2994-6.301,16.702,16.702,0,0,1-2.3332-8.6318V17.2685a16.6227,16.6227,0,0,1,2.3332-8.6919,17.612,17.612,0,0,1,6.2994-6.2409A16.7231,16.7231,0,0,1,369.23.0017h49.4655a16.4239,16.4239,0,0,1,8.5749,2.334,18.2738,18.2738,0,0,1,6.3,6.2409,16.3367,16.3367,0,0,1,2.3917,8.6919V66.7348a16.4154,16.4154,0,0,1-2.3917,8.6318,18.0972,18.0972,0,0,1-6.3,6.301A16.4225,16.4225,0,0,1,418.6956,84Zm48.4156-18.1988V18.2021H370.0466V65.8012Z"/><path class="cls-1" d="M463.4243,84a16.721,16.721,0,0,1-8.6333-2.3324,17.4507,17.4507,0,0,1-6.2994-6.301,16.7011,16.7011,0,0,1-2.3332-8.6318V17.2685a16.6218,16.6218,0,0,1,2.3332-8.6919,17.61,17.61,0,0,1,6.2994-6.2409,16.7224,16.7224,0,0,1,8.6333-2.334H512.89a16.4236,16.4236,0,0,1,8.5748,2.334,18.2721,18.2721,0,0,1,6.3,6.2409,16.3367,16.3367,0,0,1,2.3917,8.6919V66.7348a16.4154,16.4154,0,0,1-2.3917,8.6318,18.0955,18.0955,0,0,1-6.3,6.301A16.4222,16.4222,0,0,1,512.89,84ZM511.84,65.8012V18.2021H464.2409V65.8012Z"/><path class="cls-1" d="M540.6659,84V.0017h66.616a16.6351,16.6351,0,0,1,8.6912,2.334,18.2738,18.2738,0,0,1,6.3,6.2409,16.3367,16.3367,0,0,1,2.3917,8.6919V66.7348a16.4154,16.4154,0,0,1-2.3917,8.6318,18.0972,18.0972,0,0,1-6.3,6.301A16.6339,16.6339,0,0,1,607.2819,84Zm65.6824-18.1988V18.2021H558.6329V65.8012Z"/></g><g id="Vrstva_5" data-name="Vrstva 5"><rect class="cls-1" x="635.5188" y="47.5494" width="18.1012" height="36.5377"/><rect class="cls-1" x="663.8266" y="21.0245" width="18.1012" height="63.0625"/><rect class="cls-1" x="692.1343" y="33.2374" width="18.1012" height="50.8496"/><rect class="cls-1" x="720.4421" y="5.4722" width="18.1012" height="78.6148"/></g></g></svg>